<svg width="44" height="44" viewBox="0 0 44 44" fill="none" xmlns="http://www.w3.org/2000/svg">
  <defs>
    <linearGradient id="chrome" x1="0" y1="0" x2="0" y2="1">
      <stop offset="0%" stop-color="#FFFFFF"/>
      <stop offset="35%" stop-color="#D9D9D9"/>
      <stop offset="100%" stop-color="#8A8A8A"/>
    </linearGradient>
  </defs>
  <rect x="0.5" y="0.5" width="43" height="43" rx="7" fill="#0D0D0D" stroke="#1E1E1E"/>
  <rect x="0.5" y="36.5" width="43" height="7" fill="rgba(0,174,239,0.12)"/>
  <rect x="0.5" y="43" width="43" height="0.5" fill="rgba(0,174,239,0.6)"/>
  <rect x="9" y="7" width="5" height="30" rx="1.5" fill="url(#chrome)"/>
  <path d="M14 7 L20.5 7 C26.5 7 29.5 10 29.5 13.5 C29.5 17 26.5 20 20.5 20 L14 20 Z" fill="url(#chrome)"/>
  <path d="M14 20 L21.5 20 C28 20 31.5 23.5 31.5 27 C31.5 30.5 28 37 21.5 37 L14 37 Z" fill="url(#chrome)"/>
  <circle cx="22.5" cy="13.5" r="3.2" fill="#00AEEF"/>
  <circle cx="23.6" cy="12.4" r="0.9" fill="rgba(255,255,255,0.55)"/>
  <circle cx="23.5" cy="28" r="3.2" fill="#00AEEF"/>
  <circle cx="24.6" cy="26.9" r="0.9" fill="rgba(255,255,255,0.55)"/>
</svg>
